<svg width="277" height="295" viewBox="0 0 277 295" fill="none" xmlns="http://www.w3.org/2000/svg">
    <path d="M19 259H55V277H19V259Z" fill="#F59F54" />
    <path d="M55 240H74V222H92H111V204H130V185H148V204H166V222H203V240H222V259H185V240H148V222H129V240H92V259H55V240Z"
        fill="#F59F54" />
    <path d="M55 167H74V185H55V167Z" fill="#444444" />
    <path d="M37 148H55V167H37V148Z" fill="#444444" />
    <path d="M37 148H55V167H37V148Z" fill="#444444" />
    <path d="M18 130H37V148H18V130Z" fill="#444444" />
    <path d="M0 93H18H93V55H111V111L18 111.5V130H0V93Z" fill="#444444" />
    <path d="M129 222H148V240H129V222Z" fill="#444444" />
    <path d="M92 240H129V259H92V240Z" fill="#444444" />
    <path d="M55 259H92V277H55V259Z" fill="#444444" />
    <path d="M19 222H37V259H19V222Z" fill="#444444" />
    <path d="M37 185H55V222H37V185Z" fill="#444444" />
    <path d="M0 277V259H19V277H55V295H0V277Z" fill="#444444" />
    <path d="M0 277V259H19V277H55V295H0V277Z" fill="#444444" />
    <path d="M240 130H258V148H240V130Z" fill="#444444" />
    <path d="M222 148H240V166H222V148Z" fill="#444444" />
    <path d="M204 166H222V185H204V166Z" fill="#444444" />
    <path d="M185 148H222V166H185V148Z" fill="#F59F54" />
    <path d="M74 111H111V130H93V148H74V130V111Z" fill="white" />
    <path d="M111 74H148V93H130V111H111V93V74Z" fill="white" />
    <path d="M222 130H240V148H222V130Z" fill="#F59F54" />
    <path d="M222 185H240V222H222V185Z" fill="#444444" />
    <path d="M240 222H258V259H240V222Z" fill="#444444" />
    <path d="M185 259H222V277H185V259Z" fill="#444444" />
    <path d="M222 259H258V276H222V259Z" fill="#F59F54" />
    <path d="M148 240H185V259H148V240Z" fill="#444444" />
    <path d="M258 259H276V294H258H222V276H258V259Z" fill="#444444" />
    <path d="M129 0H148V18H129V0Z" fill="#444444" />
    <rect x="111" y="18" width="18" height="37" fill="#444444" />
    <rect x="148" y="18" width="19" height="37" fill="#444444" />
    <rect x="167" y="55" width="18" height="37" fill="#444444" />
    <path d="M185 92H277V111V130H258V111H185V92Z" fill="#444444" />
    <path
        d="M74 167H55V148H37V130H18V111H74V148H93V130H111V111H130V93H148V74H111V55H129V18H148V55H167V92H185V111H258V130H222V148H185V166H204V185H222V222H240V259L222 259V240H203V222H166V204H148V185H130V204H111V222H74V240H56V259H37V222H55V185H74V167Z"
        fill="#EBE527" />
</svg>